<svg id="Layer_1" data-name="Layer 1" xmlns="http://www.w3.org/2000/svg" viewBox="0 0 393.64 161.2"><defs><style>.cls-1{fill:#444c66;}.cls-2{fill:#333f5e;}.cls-3{fill:#282b49;}.cls-4{fill:#323b5b;}</style></defs><rect class="cls-1" width="393.64" height="161.2"/><path class="cls-2" d="M309,222.16a6,6,0,0,1-5.21,2.87c-1.94.09-3.89.16-5.83.24-.33-.14-.67-.28-1-.44-2.92-1.45-3.45-4.41-1.16-6.7a15.91,15.91,0,0,1,1.74-1.28,3.37,3.37,0,0,0,1.51-3.08,15.53,15.53,0,0,0,0-2.55c-.34-2.28-1.2-3-3.55-3.39-2.05-.32-4.08-.68-6.12-1.06-1-.18-2-.43-2.69.5-.92,1.19-1.59,2.48-.89,4a20.74,20.74,0,0,1,1.1,2.28,1.93,1.93,0,0,1-1.82,2.57,8.23,8.23,0,0,1-6-2.2,2,2,0,0,1-.1-2.66,3.52,3.52,0,0,1,1.78-1.21,3.1,3.1,0,0,0,1.86-1.05,3.29,3.29,0,0,0,1.18-2.59,1.67,1.67,0,0,0-.9-1.85,64.21,64.21,0,0,1-7.3-4.28,2.12,2.12,0,0,0-1.4-.24c-2.92.56-5.38,4.19-4.93,7.19a14.94,14.94,0,0,1,.36,2.54c-.07,2.95-2.41,4.41-5.09,3.21-.89-.4-1.73-.91-2.6-1.37l0,0-1-.79c-.64-.72-1.31-1.42-1.9-2.19a13.72,13.72,0,0,1-1.63-2.4,3.18,3.18,0,0,1,1.45-4.36,5.3,5.3,0,0,1,4.22-.59,3.7,3.7,0,0,0,3.75-.75,7.57,7.57,0,0,0,2.86-4.52,2.07,2.07,0,0,0-.35-1.36c-.57-.77-1.28-1.44-1.93-2.16-.83-1.33-1.72-2.63-2.46-4-.94-1.75-1.95-1.74-3.66-1.14a3.2,3.2,0,0,0-2.21,2.66,4.09,4.09,0,0,1-2.32,3.06c-2.87-1.22-3.58-3.82-4.07-6.51a1.88,1.88,0,0,1,1.68-2.05,3.69,3.69,0,0,1,2.78.62,3.19,3.19,0,0,0,3.74-.47,2.14,2.14,0,0,0,.93-2.85c-.46-1.39-1-2.75-1.49-4.13-.07-1.54.2-3.18-1.28-4.3a3.4,3.4,0,0,0-3-.9c-2.48-.45-4.47.2-5.71,2.53a7.14,7.14,0,0,1-3.77,3.14c-2.48-.27-3.64-1.86-4-4.13a21.73,21.73,0,0,1-.14-7c.25-1.49.75-2.91,2.39-3.42a4.46,4.46,0,0,1,4.41,1.18,4.2,4.2,0,0,1,.92,1.14,4.25,4.25,0,0,0,3.5,2.36,8.15,8.15,0,0,0,4.95-1.06,2.39,2.39,0,0,0,.94-1.91c.39-2.3.78-4.59,1.18-6.89a3.16,3.16,0,0,0-4-3.63c-.81.24-1.52.81-2.31,1.13-1.83.73-3.29-.27-3.16-2.19a9.31,9.31,0,0,1,1.9-5.11,2.2,2.2,0,0,1,3.71.26,5,5,0,0,1,.56,1.35,3.45,3.45,0,0,0,2.85,2.55,2.19,2.19,0,0,0,2.78-1.14c1.22-2.13,2.39-4.28,3.58-6.42a1.67,1.67,0,0,0,.78-1.9,8.62,8.62,0,0,0-3.6-4.49c-1.38-.93-2.82-.55-4.25-.16l-1.42.38a16.52,16.52,0,0,1-2.1-.66c-1.81-.85-2.57-2.45-1.78-4.23a15.39,15.39,0,0,1,6.82-7.47,3.13,3.13,0,0,1,4.43,1.29,5,5,0,0,1,.71,3.88c-.3,1.22-.55,2.43.23,3.55a8.2,8.2,0,0,0,3.91,3.23,2.61,2.61,0,0,0,2.76-.37,48.46,48.46,0,0,1,5.69-4.05,3.16,3.16,0,0,0-.29-5.58c-.75-.38-1.65-.45-2.43-.79a2,2,0,0,1-.66-3.56,9.48,9.48,0,0,1,4.87-2.43,2.21,2.21,0,0,1,2.69,2.59,6.8,6.8,0,0,1-.75,2,3.29,3.29,0,0,0,.62,3.74,2,2,0,0,0,2.24.89c2.61-.7,5.21-1.41,7.82-2.09a2.44,2.44,0,0,0,1.77-1.7,8.36,8.36,0,0,0,.15-5.07,4.15,4.15,0,0,0-2-2.5,8,8,0,0,1-2.53-2.1c-1.53-2.14-.91-4.42,1.57-5.33a16.54,16.54,0,0,1,8.71-.65c2.62.46,3.31,1.43,3.34,4.32,0,.24,0,.49,0,.73a9.81,9.81,0,0,1-2.77,2.86c-1.92,1-2.28,2.79-2,4.69.56,4,1.34,4.91,5,4.5,1.78.41,3.56.85,5.35,1.21A1.92,1.92,0,0,0,312,129a3.55,3.55,0,0,0,.2-4.11c-.07-.11-.12-.22-.19-.31-.78-1.08-1.12-2.23-.2-3.36s2-.82,3-.52a17.46,17.46,0,0,1,3.08,1.13c1.73.86,1.89,1.44,1.46,3.91a12,12,0,0,1-2.93,1.35c-1.42.55-1.78,1.86-1.86,3.24a2.21,2.21,0,0,0,1.53,2.22l3.25,1.53c.88.65,1.8,1.26,2.65,2a2.75,2.75,0,0,0,3.41.07,9.46,9.46,0,0,0,2.72-2.44,4.07,4.07,0,0,0,.88-3.78,7.32,7.32,0,0,1-.22-4c.6-2.22,2.43-3.29,4.51-2.37a15.7,15.7,0,0,1,7.25,6.54,5.75,5.75,0,0,1,.57,3.22,6.07,6.07,0,0,1-6.21,2.08,2.82,2.82,0,0,0-2.11.21c-2.38.67-3.4,2.59-4.22,4.66a1.9,1.9,0,0,0,.39,2c1.25,1.48,2.46,3,3.68,4.5a5.63,5.63,0,0,0,.24.69c.54,1.09,1,2.36,2.57,2.15s3.14-.68,3.59-2.58c.08-.36.18-.71.29-1.06a2.46,2.46,0,0,1,2-1.94c1.31-.21,2,.67,2.6,1.63a14.22,14.22,0,0,1,1.93,4.72c-1.67,2.25-1.92,2.35-4.13,1.55-.34-.12-.63-.38-1-.49a3.79,3.79,0,0,0-4,1.18c-.84.82-.41,1.8-.16,2.74.56,2.11,1.16,4.22,1.64,6.35a2.72,2.72,0,0,0,3.09,2.41,4.71,4.71,0,0,0,2.52.25,3.93,3.93,0,0,0,3.44-1.79c.42-.6.8-1.24,1.24-1.83a5,5,0,0,1,2-1.61,3.13,3.13,0,0,1,4.51,1.8,43.78,43.78,0,0,1,1.14,4.26,45.45,45.45,0,0,1-.56,5.1c-.54,2.52-2.68,3.51-5.08,2.55a5.47,5.47,0,0,1-2.69-2.42,3.5,3.5,0,0,0-2.21-1.81,8.12,8.12,0,0,0-5.06.27,2.87,2.87,0,0,0-1.91,2.47c-.32,2.43-.81,4.84-1.2,7.26a3.19,3.19,0,0,0,0,1.44,2.7,2.7,0,0,0,1.9,1.6c1,.35,2.11.9,3-.3a17.9,17.9,0,0,1,2.43-.75,1.92,1.92,0,0,1,2.26,2.18c-.2,1.44-.64,2.84-1,4.26l.06,0a1.22,1.22,0,0,0-.63,1c-.81.5-1.49,1.33-2.64.9a3.14,3.14,0,0,1-2-2c-.08-.23-.15-.47-.21-.71a3.11,3.11,0,0,0-2.61-2.28c-1.55-.4-2.19-.13-3,1.3-1.09,1.91-2.07,3.91-3.32,5.72a3.37,3.37,0,0,0,.11,4.38c1,1.27,1.93,2.58,3.67,2.87a5.41,5.41,0,0,0,2.85,0,12.76,12.76,0,0,1,2.14-.25c2.1,0,4.64,1.72,3.61,4.49-.17.45-.27.92-.4,1.39-1,1.1-1.9,2.21-2.88,3.3a12.24,12.24,0,0,1-5,3.58c-3.39-.83-4.16-3.28-3.89-6.35.76-1.4.22-2.63-.62-3.73a8.08,8.08,0,0,0-3.14-2.46,2.83,2.83,0,0,0-3.09.28c-2.07,1.51-4.15,3-6.26,4.45a2.14,2.14,0,0,0-.91,2.55c.39,1.46,1.11,2.72,2.81,3,.71.13,1.42.33,2.13.5a2.79,2.79,0,0,1-.36,4L320,214.31c-.46.09-.92.2-1.38.28-2.38.39-2.42.36-3.69-2.11.42-.88.9-1.74,1.25-2.65.55-1.44-.16-2.62-1-3.69-.71-.9-1.64-.82-2.66-.53-2.23.65-4.47,1.27-6.74,1.78a2.88,2.88,0,0,0-2.39,2.44c-.93,4.54.07,6.44,3.4,7.81a2,2,0,0,0,.35.1A7.47,7.47,0,0,1,309,222.16ZM294.9,147.64a3.55,3.55,0,0,0-.68-3.44,5,5,0,0,0-2.61-1.95,8.57,8.57,0,0,0-4.35-.28,16.59,16.59,0,0,0-11,7.33,9.89,9.89,0,0,0-1.66,4c-.59,3.67,1.4,6.32,5.08,6.64a10.06,10.06,0,0,0,7.31-1.87,14,14,0,0,0,7-6.64A5.58,5.58,0,0,0,294.9,147.64Zm31,41.25c2.87-.81,5.34-4.9,4.76-7.91a2.35,2.35,0,0,0-3-2c-3,.72-5.65,5.06-4.92,8.13A2.45,2.45,0,0,0,325.88,188.89Zm-20.3-40.56a1.55,1.55,0,0,0-1.67-1.08,6.55,6.55,0,0,0-5.16,5.38,1.59,1.59,0,0,0,1.56,1.64,1.85,1.85,0,0,0,.71-.07,6.83,6.83,0,0,0,4.59-5.16A2.86,2.86,0,0,0,305.58,148.33Zm26.72,21.95a1.22,1.22,0,0,0-1.79-.58,3.73,3.73,0,0,0-1.59,3.45,1.33,1.33,0,0,0,1.6,1.06A3.44,3.44,0,0,0,332.3,170.28Z" transform="translate(-225.19 -72.4)"/><path class="cls-3" d="M393.37,152.35a3.64,3.64,0,0,1-2.63,2.45l-3.39,1-.64-.11a2.37,2.37,0,0,1-1.68-3.76,10,10,0,0,1,.84-1,2.06,2.06,0,0,0,.43-2,9.39,9.39,0,0,0-.37-1.5c-.54-1.29-1.15-1.59-2.58-1.46-1.25.12-2.5.2-3.75.28-.6,0-1.22,0-1.5.7a2.25,2.25,0,0,0,.07,2.5,13.62,13.62,0,0,1,1,1.17,1.17,1.17,0,0,1-.69,1.78,4.93,4.93,0,0,1-3.85-.41,1.18,1.18,0,0,1-.45-1.54,2.1,2.1,0,0,1,.87-1c.37-.24.77-.44.93-.9a2,2,0,0,0,.31-1.69,1,1,0,0,0-.8-1,40.11,40.11,0,0,1-4.92-1.43,1.19,1.19,0,0,0-.85.07,4.16,4.16,0,0,0-1.83,4.95,9.79,9.79,0,0,1,.59,1.43,2.06,2.06,0,0,1-2.52,2.64c-.58-.1-1.15-.28-1.72-.42h0l-.67-.32c-.49-.33-1-.64-1.44-1a8.12,8.12,0,0,1-1.31-1.17,1.92,1.92,0,0,1,.2-2.77,3.19,3.19,0,0,1,2.39-1,2.24,2.24,0,0,0,2.09-1,4.58,4.58,0,0,0,1-3.07,1.2,1.2,0,0,0-.41-.75c-.44-.36-1-.65-1.44-1-.69-.66-1.4-1.29-2-2-.81-.88-1.4-.73-2.32-.12a1.93,1.93,0,0,0-.9,1.88,2.47,2.47,0,0,1-.91,2.14c-1.86-.29-2.66-1.7-3.34-3.21a1.13,1.13,0,0,1,.67-1.45,2.26,2.26,0,0,1,1.73,0,1.93,1.93,0,0,0,2.12-.83,1.29,1.29,0,0,0,.12-1.81c-.47-.75-1-1.47-1.48-2.2-.27-.9-.36-1.9-1.39-2.34a2.09,2.09,0,0,0-1.9-.08,2.94,2.94,0,0,0-3,2.34,4.35,4.35,0,0,1-1.75,2.4,2.63,2.63,0,0,1-3-1.84,13,13,0,0,1-1.12-4.06,2.26,2.26,0,0,1,.9-2.36,2.68,2.68,0,0,1,2.76,0,2.64,2.64,0,0,1,.71.53,2.59,2.59,0,0,0,2.4.87,4.9,4.9,0,0,0,2.74-1.36,1.42,1.42,0,0,0,.27-1.26l-.33-4.22a1.91,1.91,0,0,0-2.89-1.53c-.43.26-.76.7-1.18,1a1.28,1.28,0,0,1-2.18-.82,5.65,5.65,0,0,1,.36-3.27,1.33,1.33,0,0,1,2.21-.4,3.06,3.06,0,0,1,.53.71,2.1,2.1,0,0,0,2.05,1.08,1.33,1.33,0,0,0,1.46-1.09c.4-1.42.77-2.86,1.15-4.29a1,1,0,0,0,.18-1.23,5.21,5.21,0,0,0-2.78-2.1,2.89,2.89,0,0,0-2.52.53l-.78.43a8.28,8.28,0,0,1-1.32-.07,1.86,1.86,0,0,1-1.68-2.22,9.38,9.38,0,0,1,2.9-5.39,1.9,1.9,0,0,1,2.79.1,3,3,0,0,1,1,2.17,2.47,2.47,0,0,0,.66,2,5,5,0,0,0,2.77,1.32,1.61,1.61,0,0,0,1.57-.63,30,30,0,0,1,2.73-3.22,1.91,1.91,0,0,0-1-3.23c-.5-.11-1,0-1.54-.1a1.23,1.23,0,0,1-.92-2,5.75,5.75,0,0,1,2.5-2.15,1.34,1.34,0,0,1,2,1.12,4.18,4.18,0,0,1-.14,1.31,2,2,0,0,0,.92,2.1,1.24,1.24,0,0,0,1.45.19c1.42-.79,2.84-1.6,4.27-2.38a1.46,1.46,0,0,0,.79-1.26,5.16,5.16,0,0,0-.66-3,2.57,2.57,0,0,0-1.56-1.16,5,5,0,0,1-1.8-.86,2,2,0,0,1,.13-3.36,10.11,10.11,0,0,1,5-1.67c1.61-.12,2.16.35,2.6,2l.12.43a5.89,5.89,0,0,1-1.21,2.08,2.5,2.5,0,0,0-.48,3c.92,2.27,1.51,2.68,3.62,1.9,1.11,0,2.22,0,3.32-.09a1.16,1.16,0,0,0,1.26-1,2.14,2.14,0,0,0-.5-2.44l-.15-.16a1.53,1.53,0,0,1-.62-1.94c.33-.71,1-.77,1.72-.75a10.79,10.79,0,0,1,2,.2c1.14.25,1.32.56,1.44,2.08a7.15,7.15,0,0,1-1.52,1.22,2,2,0,0,0-.62,2.18,1.36,1.36,0,0,0,1.23,1.08l2.13.41c.62.25,1.25.48,1.85.76a1.67,1.67,0,0,0,2-.46,5.8,5.8,0,0,0,1.24-1.84,2.46,2.46,0,0,0,0-2.34,4.46,4.46,0,0,1-.72-2.31,1.9,1.9,0,0,1,2.3-2.06,9.52,9.52,0,0,1,5.22,2.76,3.51,3.51,0,0,1,.8,1.81,3.64,3.64,0,0,1-3.33,2.13,1.81,1.81,0,0,0-1.21.44c-1.29.75-1.6,2-1.78,3.36a1.15,1.15,0,0,0,.53,1.13c1,.69,1.88,1.39,2.82,2.09a3.41,3.41,0,0,0,.25.37c.48.56.93,1.24,1.83.89s1.74-.87,1.71-2c0-.22,0-.44,0-.66a1.51,1.51,0,0,1,.87-1.44c.74-.31,1.28.1,1.77.58a8.63,8.63,0,0,1,1.83,2.48c-.65,1.57-.78,1.66-2.2,1.52-.21,0-.42-.13-.64-.14a2.27,2.27,0,0,0-2.15,1.28c-.38.6,0,1.11.31,1.63.64,1.15,1.31,2.3,1.9,3.48a1.65,1.65,0,0,0,2.17,1,2.94,2.94,0,0,0,1.52-.23,2.38,2.38,0,0,0,1.75-1.56c.16-.42.28-.85.46-1.26a2.92,2.92,0,0,1,.91-1.23,1.89,1.89,0,0,1,2.91.38,25.29,25.29,0,0,1,1.31,2.33,27.11,27.11,0,0,1,.42,3.08,2.1,2.1,0,0,1-2.6,2.25,3.38,3.38,0,0,1-1.93-1,2.11,2.11,0,0,0-1.57-.74,4.89,4.89,0,0,0-2.93.91,1.72,1.72,0,0,0-.75,1.73c.17,1.47.24,3,.37,4.44a2,2,0,0,0,.2.84,1.64,1.64,0,0,0,1.36.66c.65,0,1.37.21,1.71-.62a10.43,10.43,0,0,1,1.31-.8,1.16,1.16,0,0,1,1.65,1,25.79,25.79,0,0,1,.06,2.64l0,0a.75.75,0,0,0-.22.67c-.41.41-.68,1-1.42.92a1.92,1.92,0,0,1-1.46-.9,2.88,2.88,0,0,1-.22-.38,1.89,1.89,0,0,0-1.87-1c-1,0-1.31.25-1.58,1.21-.36,1.28-.63,2.6-1.1,3.84a2,2,0,0,0,.72,2.56,3.65,3.65,0,0,0,2.57,1.14,3.26,3.26,0,0,0,1.67-.44,7.46,7.46,0,0,1,1.22-.46,2.07,2.07,0,0,1,2.78,2.1,8.42,8.42,0,0,0,0,.87c-.4.79-.79,1.58-1.2,2.37a7.46,7.46,0,0,1-2.42,2.84c-2.12,0-2.92-1.31-3.22-3.15a2,2,0,0,0-.92-2.1,4.91,4.91,0,0,0-2.21-1,1.69,1.69,0,0,0-1.77.62c-1,1.19-2,2.38-3,3.53a1.32,1.32,0,0,0-.16,1.64,2.2,2.2,0,0,0,2.1,1.36c.44,0,.88,0,1.33,0a1.7,1.7,0,0,1,.38,2.44l-1.24,1.16c-.26.12-.51.25-.77.36-1.34.58-1.37.57-2.48-.69a17.61,17.61,0,0,0,.34-1.73,2.2,2.2,0,0,0-1.14-2,1.36,1.36,0,0,0-1.64.09c-1.21.7-2.44,1.4-3.69,2a1.76,1.76,0,0,0-1,1.79c.12,2.81,1,3.77,3.15,4.08h.22A4.47,4.47,0,0,1,393.37,152.35Zm-19.29-41.63a2.14,2.14,0,0,0-.91-1.92,3,3,0,0,0-1.81-.75,5.29,5.29,0,0,0-2.6.48,10,10,0,0,0-5.38,5.93,6,6,0,0,0-.38,2.62,3.23,3.23,0,0,0,4,3.15,6.17,6.17,0,0,0,4-2.18,8.49,8.49,0,0,0,3.14-4.94A3.39,3.39,0,0,0,374.08,110.72Zm24.29,19.61A4.69,4.69,0,0,0,400,125a1.42,1.42,0,0,0-2-.71,4.62,4.62,0,0,0-1.69,5.5A1.5,1.5,0,0,0,398.37,130.33Zm-17.92-20.79a.94.94,0,0,0-1.14-.38,4,4,0,0,0-2.23,3.92,1,1,0,0,0,1.16.73,1.19,1.19,0,0,0,.41-.15,4.11,4.11,0,0,0,1.92-3.7A1.66,1.66,0,0,0,380.45,109.54Zm18.92,8.92a.73.73,0,0,0-1.13-.07,2.23,2.23,0,0,0-.42,2.25.8.8,0,0,0,1.09.39A2.09,2.09,0,0,0,399.37,118.46Z" transform="translate(-225.19 -72.4)"/><path class="cls-3" d="M436.38,202.22a1.88,1.88,0,0,1-1.37,1.29l-1.77.52a3.43,3.43,0,0,1-.34-.06,1.23,1.23,0,0,1-.88-2,5.62,5.62,0,0,1,.44-.53,1.05,1.05,0,0,0,.22-1.06,4.94,4.94,0,0,0-.19-.78c-.28-.68-.6-.84-1.35-.77s-1.31.11-2,.15c-.31,0-.64,0-.79.36a1.2,1.2,0,0,0,0,1.31,7.31,7.31,0,0,1,.52.61.61.61,0,0,1-.36.93,2.57,2.57,0,0,1-2-.21.61.61,0,0,1-.24-.81,1.11,1.11,0,0,1,.45-.51c.2-.12.41-.22.49-.46a1,1,0,0,0,.16-.89.51.51,0,0,0-.42-.49,22.9,22.9,0,0,1-2.57-.75.64.64,0,0,0-.45,0,2.18,2.18,0,0,0-.95,2.59,5.39,5.39,0,0,1,.31.75,1.08,1.08,0,0,1-1.32,1.38c-.3-.05-.6-.14-.9-.22h0l-.35-.17c-.26-.17-.52-.33-.76-.52a4,4,0,0,1-.68-.62,1,1,0,0,1,.1-1.45,1.67,1.67,0,0,1,1.25-.5,1.2,1.2,0,0,0,1.1-.52,2.43,2.43,0,0,0,.52-1.61.61.61,0,0,0-.21-.39c-.24-.19-.5-.35-.76-.52-.36-.34-.73-.67-1.07-1s-.73-.38-1.21-.06a1,1,0,0,0-.47,1,1.27,1.27,0,0,1-.47,1.12c-1-.15-1.4-.89-1.76-1.68a.6.6,0,0,1,.36-.76,1.22,1.22,0,0,1,.9,0,1,1,0,0,0,1.11-.44.67.67,0,0,0,.07-.94c-.25-.39-.52-.77-.78-1.16s-.19-1-.73-1.22a1.08,1.08,0,0,0-1,0,1.54,1.54,0,0,0-1.56,1.22,2.27,2.27,0,0,1-.91,1.26,1.38,1.38,0,0,1-1.55-1,6.8,6.8,0,0,1-.58-2.13,1.16,1.16,0,0,1,.47-1.23,1.4,1.4,0,0,1,1.44,0,1.26,1.26,0,0,1,.37.27,1.35,1.35,0,0,0,1.26.46,2.6,2.6,0,0,0,1.43-.71.74.74,0,0,0,.14-.66c-.05-.73-.11-1.47-.17-2.2a1,1,0,0,0-1.51-.81c-.23.14-.4.37-.62.53a.67.67,0,0,1-1.14-.43,2.86,2.86,0,0,1,.19-1.71.7.7,0,0,1,1.16-.21,1.26,1.26,0,0,1,.27.37,1.08,1.08,0,0,0,1.07.56.7.7,0,0,0,.77-.57c.21-.74.4-1.49.6-2.24a.53.53,0,0,0,.09-.65,2.76,2.76,0,0,0-1.45-1.1,1.56,1.56,0,0,0-1.32.28l-.4.23a4.05,4.05,0,0,1-.7,0,1,1,0,0,1-.87-1.16,4.84,4.84,0,0,1,1.51-2.82,1,1,0,0,1,1.46.05,1.56,1.56,0,0,1,.52,1.14,1.29,1.29,0,0,0,.34,1.07,2.66,2.66,0,0,0,1.45.69.83.83,0,0,0,.82-.33,16.46,16.46,0,0,1,1.43-1.68,1,1,0,0,0-.51-1.69c-.27-.06-.55,0-.81-.06a.64.64,0,0,1-.48-1,3,3,0,0,1,1.3-1.12.7.7,0,0,1,1,.58,2,2,0,0,1-.07.69,1,1,0,0,0,.48,1.1.65.65,0,0,0,.76.1l2.23-1.25a.79.79,0,0,0,.42-.66,2.69,2.69,0,0,0-.35-1.57,1.37,1.37,0,0,0-.82-.61,2.61,2.61,0,0,1-.94-.44,1,1,0,0,1,.07-1.76,5.25,5.25,0,0,1,2.62-.88c.84-.06,1.13.19,1.36,1.07l.06.22a3,3,0,0,1-.63,1.1,1.3,1.3,0,0,0-.25,1.59c.48,1.19.79,1.41,1.9,1,.57,0,1.15,0,1.73,0,.4,0,.54-.15.66-.53a1.1,1.1,0,0,0-.26-1.27l-.08-.08a.81.81,0,0,1-.32-1c.17-.37.54-.4.89-.39a5.16,5.16,0,0,1,1,.1c.59.13.69.3.75,1.09a3.81,3.81,0,0,1-.8.64,1,1,0,0,0-.32,1.14.7.7,0,0,0,.64.56l1.12.22c.32.13.65.25,1,.4a.88.88,0,0,0,1-.25,3.19,3.19,0,0,0,.65-1,1.29,1.29,0,0,0,0-1.22,2.5,2.5,0,0,1-.38-1.21,1,1,0,0,1,1.21-1.08,5,5,0,0,1,2.73,1.45,1.88,1.88,0,0,1,.42.94,1.92,1.92,0,0,1-1.74,1.12.89.89,0,0,0-.64.23,2.13,2.13,0,0,0-.93,1.75.61.61,0,0,0,.28.6l1.48,1.09a1.32,1.32,0,0,0,.12.2c.25.29.49.64,1,.46s.91-.45.9-1.07c0-.12,0-.23,0-.35a.78.78,0,0,1,.45-.75c.39-.17.67.05.93.3a4.54,4.54,0,0,1,.95,1.3c-.33.82-.4.87-1.14.79-.12,0-.23-.06-.34-.07a1.2,1.2,0,0,0-1.13.67c-.19.32,0,.58.17.85.33.61.68,1.21,1,1.82a.87.87,0,0,0,1.14.51,1.54,1.54,0,0,0,.79-.13,1.24,1.24,0,0,0,.92-.81c.08-.22.15-.44.24-.66a1.43,1.43,0,0,1,.48-.64,1,1,0,0,1,1.52.2,13.13,13.13,0,0,1,.68,1.22,14.49,14.49,0,0,1,.22,1.61,1.09,1.09,0,0,1-1.36,1.17,1.72,1.72,0,0,1-1-.53,1.14,1.14,0,0,0-.82-.39,2.53,2.53,0,0,0-1.53.48.9.9,0,0,0-.4.9c.09.78.13,1.55.2,2.33a1,1,0,0,0,.11.44.83.83,0,0,0,.7.34c.34,0,.72.11.9-.32a4.89,4.89,0,0,1,.69-.42.6.6,0,0,1,.86.49c.05.46,0,.93,0,1.39l0,0a.39.39,0,0,0-.12.35c-.21.22-.36.53-.74.48a1,1,0,0,1-.77-.46l-.11-.2a1,1,0,0,0-1-.5c-.51,0-.69.13-.83.63-.18.67-.33,1.36-.57,2a1.07,1.07,0,0,0,.37,1.34,1.89,1.89,0,0,0,1.35.59,1.76,1.76,0,0,0,.87-.22,3.86,3.86,0,0,1,.64-.25,1.09,1.09,0,0,1,1.46,1.1c0,.15,0,.31,0,.46-.21.41-.41.83-.63,1.24a3.76,3.76,0,0,1-1.26,1.48c-1.11,0-1.53-.68-1.68-1.64a1,1,0,0,0-.48-1.1,2.59,2.59,0,0,0-1.16-.51.9.9,0,0,0-.93.32c-.51.63-1,1.25-1.57,1.85a.69.69,0,0,0-.08.86,1.12,1.12,0,0,0,1.09.71c.23,0,.47,0,.7,0a.88.88,0,0,1,.2,1.27c-.22.2-.44.4-.65.61l-.41.19c-.69.3-.71.3-1.29-.36.06-.3.14-.6.18-.91a1.14,1.14,0,0,0-.6-1,.71.71,0,0,0-.86,0c-.63.37-1.27.74-1.93,1.07a.9.9,0,0,0-.54.93c.06,1.47.52,2,1.65,2.13h.11A2.36,2.36,0,0,1,436.38,202.22Zm-10.09-21.78a1.1,1.1,0,0,0-.47-1,1.52,1.52,0,0,0-.95-.39,2.65,2.65,0,0,0-1.36.25,5.26,5.26,0,0,0-2.82,3.1,3,3,0,0,0-.19,1.37,1.69,1.69,0,0,0,2.07,1.65,3.26,3.26,0,0,0,2.1-1.14,4.44,4.44,0,0,0,1.64-2.59A1.74,1.74,0,0,0,426.29,180.44ZM439,190.7a2.45,2.45,0,0,0,.85-2.8.75.75,0,0,0-1.07-.37,2.42,2.42,0,0,0-.88,2.88A.77.77,0,0,0,439,190.7Zm-9.38-10.87a.47.47,0,0,0-.59-.2,2.07,2.07,0,0,0-1.17,2.05.51.51,0,0,0,.61.38.54.54,0,0,0,.21-.08,2.16,2.16,0,0,0,1-1.94A.58.58,0,0,0,429.62,179.83Zm9.9,4.66a.39.39,0,0,0-.59,0,1.18,1.18,0,0,0-.22,1.18.44.44,0,0,0,.58.21A1.1,1.1,0,0,0,439.52,184.49Z" transform="translate(-225.19 -72.4)"/><path class="cls-4" d="M471.41,201.2a5.26,5.26,0,0,1-5.15-.61L462,197.78c-.15-.27-.32-.54-.47-.81-1.33-2.51-.19-4.88,2.59-5.34a14.7,14.7,0,0,1,1.88,0,2.93,2.93,0,0,0,2.64-1.41,13.23,13.23,0,0,0,1.31-1.79c.93-1.79.69-2.75-.79-4.21q-1.92-1.9-3.78-3.86c-.6-.63-1.18-1.31-2.16-1-1.26.37-2.39,1-2.69,2.4a21.54,21.54,0,0,1-.38,2.18,1.68,1.68,0,0,1-2.6.89,7.17,7.17,0,0,1-3.13-4.61,1.7,1.7,0,0,1,1.29-1.93,3.06,3.06,0,0,1,1.87,0,2.66,2.66,0,0,0,1.86.21,2.91,2.91,0,0,0,2.15-1.23,1.45,1.45,0,0,0,.3-1.77,57.23,57.23,0,0,1-3-6.75,1.73,1.73,0,0,0-.87-.88c-2.35-1.09-5.93.22-7.15,2.58a12,12,0,0,1-1,2,2.94,2.94,0,0,1-5.23-.32c-.43-.74-.77-1.52-1.14-2.29v0l-.27-1.05c-.08-.84-.2-1.67-.23-2.52a11.88,11.88,0,0,1,.07-2.53,2.78,2.78,0,0,1,3.25-2.35,4.66,4.66,0,0,1,3.28,1.74,3.26,3.26,0,0,0,3,1.38,6.63,6.63,0,0,0,4.32-1.75,1.71,1.71,0,0,0,.44-1.14,23.73,23.73,0,0,0-.26-2.51c.1-1.36.12-2.74.3-4.1.23-1.71-.49-2.21-2-2.66a2.8,2.8,0,0,0-2.92.75,3.56,3.56,0,0,1-3.2,1c-1.4-2.32-.59-4.52.44-6.68a1.64,1.64,0,0,1,2.23-.59,3.2,3.2,0,0,1,1.65,1.85,2.79,2.79,0,0,0,2.89,1.57,1.86,1.86,0,0,0,2.1-1.54c.39-1.22.71-2.46,1.06-3.68.73-1.13,1.76-2.16,1.28-3.71a3,3,0,0,0-1.68-2.17,4.23,4.23,0,0,0-5.34-1.11,6.25,6.25,0,0,1-4.26.3c-1.62-1.45-1.63-3.17-.73-5a18.75,18.75,0,0,1,3.45-5c.93-.93,2-1.68,3.43-1.21a4.29,4.29,0,0,1,2.6,4.36,3.69,3.69,0,0,0,1.27,3.45,7.13,7.13,0,0,0,4,1.77,2.1,2.1,0,0,0,1.64-.88l4.34-4.27a2.75,2.75,0,0,0-1-4.61c-.69-.25-1.48-.2-2.2-.38-1.68-.41-2.19-1.87-1.12-3.16a8.08,8.08,0,0,1,3.94-2.65,1.92,1.92,0,0,1,2.49,2.08,4.15,4.15,0,0,1-.29,1.24,3,3,0,0,0,.72,3.25,1.9,1.9,0,0,0,2.55.61c1.95-.88,3.87-1.81,5.81-2.72a1.45,1.45,0,0,0,1.51-1,7.5,7.5,0,0,0-.26-5c-.5-1.37-1.72-1.82-2.93-2.28l-1.2-.46a13.29,13.29,0,0,1-1.15-1.53,2.67,2.67,0,0,1,.9-3.9,13.44,13.44,0,0,1,8.63-1.82,2.74,2.74,0,0,1,2.48,3.18,4.33,4.33,0,0,1-1.48,3.1,3.58,3.58,0,0,0-1.64,2.63,7.27,7.27,0,0,0,1.12,4.28,2.28,2.28,0,0,0,2.15,1.14,42.69,42.69,0,0,1,6.09,0,2.75,2.75,0,0,0,2.63-4.09c-.34-.65-.94-1.17-1.31-1.81a1.77,1.77,0,0,1,1.34-2.85,8.26,8.26,0,0,1,4.69.76,1.93,1.93,0,0,1,.58,3.2,5.71,5.71,0,0,1-1.57,1.06,2.88,2.88,0,0,0-1.47,3,1.79,1.79,0,0,0,1.14,1.77l6.6,2.5a2.13,2.13,0,0,0,2.12-.3,7.43,7.43,0,0,0,2.69-3.51,3.7,3.7,0,0,0-.17-2.81,7,7,0,0,1-.72-2.77c0-2.3,1.6-3.6,3.82-3a14.56,14.56,0,0,1,6.5,4c1.62,1.67,1.61,2.71.17,4.76l-.37.53a8.33,8.33,0,0,1-3.42.61c-1.88-.25-3,.81-3.81,2.3-1.65,3.12-1.56,4.15,1.27,5.75,1.06,1.2,2.09,2.41,3.18,3.58a1.68,1.68,0,0,0,2.27.46,3.12,3.12,0,0,0,2.24-2.82c0-.1,0-.21,0-.31,0-1.16.34-2.15,1.57-2.48s1.82.43,2.42,1.19a14.47,14.47,0,0,1,1.61,2.36c.78,1.49.61,2-1,3.52a10.46,10.46,0,0,1-2.77-.54c-1.28-.33-2.21.41-3,1.34a1.94,1.94,0,0,0,0,2.35l1.52,2.74c.29.91.63,1.81.88,2.74a2.39,2.39,0,0,0,2.37,1.79,8.48,8.48,0,0,0,3.17-.34,3.56,3.56,0,0,0,2.55-2.24,6.45,6.45,0,0,1,1.88-2.93c1.56-1.27,3.39-1.09,4.4.62a13.78,13.78,0,0,1,1.8,8.32,5.11,5.11,0,0,1-1.24,2.57A5.3,5.3,0,0,1,534,153a2.53,2.53,0,0,0-1.61-.93c-2-.73-3.72.11-5.35,1.15a1.68,1.68,0,0,0-.76,1.64c.13,1.68.21,3.37.31,5.06a6.13,6.13,0,0,0-.18.61c-.17,1.05-.49,2.18.73,2.83s2.57,1.12,3.85,0q.36-.32.75-.6a2.16,2.16,0,0,1,2.38-.38c1,.53,1.08,1.51,1,2.49a12.42,12.42,0,0,1-1,4.32c-2.34.74-2.57.69-3.72-1-.18-.26-.25-.6-.44-.85a3.32,3.32,0,0,0-3.41-1.19c-1,.16-1.21,1.07-1.51,1.86-.67,1.79-1.32,3.58-2.07,5.34a2.37,2.37,0,0,0,1,3.28c.33.74,1.07,1,1.66,1.45a3.39,3.39,0,0,0,3.34.49c.61-.21,1.2-.47,1.81-.66a4.39,4.39,0,0,1,2.22-.14,2.73,2.73,0,0,1,2.27,3.57,37.28,37.28,0,0,1-1.35,3.6,41.21,41.21,0,0,1-3,3.32c-1.66,1.51-3.68,1.12-4.89-.78a4.77,4.77,0,0,1-.68-3.08,3,3,0,0,0-.64-2.41,7,7,0,0,0-3.72-2.38,2.5,2.5,0,0,0-2.61.77c-1.46,1.56-3,3-4.55,4.53a2.75,2.75,0,0,0-.73,1,2.33,2.33,0,0,0,.53,2.1c.54.77,1,1.71,2.26,1.32a13.41,13.41,0,0,1,2.11.71,1.65,1.65,0,0,1,.48,2.68c-.86.92-1.89,1.69-2.85,2.53h.06a1,1,0,0,0-.94.36c-.83,0-1.74.19-2.33-.7a2.73,2.73,0,0,1-.37-2.44,6.08,6.08,0,0,1,.21-.6,2.71,2.71,0,0,0-.69-3c-.89-1.07-1.49-1.2-2.79-.61-1.75.79-3.46,1.72-5.27,2.35a3,3,0,0,0-2.15,3.17c0,1.38.06,2.8,1.14,3.89a4.73,4.73,0,0,0,2,1.44,11.41,11.41,0,0,1,1.64.91c1.51,1.05,2.41,3.58.27,5-.35.23-.66.52-1,.78-1.24.29-2.47.6-3.72.88a10.73,10.73,0,0,1-5.37,0c-2-2.32-1.28-4.44.48-6.48a2.83,2.83,0,0,0,1.45-2.95,7,7,0,0,0-1-3.34,2.46,2.46,0,0,0-2.33-1.38c-2.23,0-4.46,0-6.69,0a1.9,1.9,0,0,0-2,1.35,3.13,3.13,0,0,0,.45,3.57c.44.46.84,1,1.25,1.44a2.44,2.44,0,0,1-2.32,2.69l-2.43-.3c-.38-.17-.76-.32-1.12-.51-1.89-.93-1.9-1-1.54-3.37.74-.41,1.52-.77,2.23-1.23,1.13-.75,1.22-1.94,1.16-3.14,0-1-.75-1.41-1.62-1.72-1.9-.69-3.81-1.38-5.67-2.18a2.51,2.51,0,0,0-2.93.51c-3,2.74-3.24,4.6-1.58,7.26.06.09.13.17.2.26A6.49,6.49,0,0,1,471.41,201.2Zm28-59.91a3.09,3.09,0,0,0,1.27-2.79,4.27,4.27,0,0,0-.86-2.7,7.49,7.49,0,0,0-2.93-2.42,14.48,14.48,0,0,0-11.54-.42,8.64,8.64,0,0,0-3.24,2c-2.28,2.3-2.22,5.19.22,7.29a8.78,8.78,0,0,0,6.13,2.4,12.21,12.21,0,0,0,8.35-1.13A4.86,4.86,0,0,0,499.39,141.29Zm.94,45c2.44.89,6.27-.75,7.39-3.17a2,2,0,0,0-1.11-2.91c-2.5-1-6.57.7-7.62,3.25A2.13,2.13,0,0,0,500.33,186.26Zm6.27-39a1.35,1.35,0,0,0-.63-1.61,5.73,5.73,0,0,0-6.4,1.18,1.4,1.4,0,0,0,.27,2,1.89,1.89,0,0,0,.55.31,6,6,0,0,0,5.87-1.31A2.4,2.4,0,0,0,506.6,147.21Zm7.74,29.14a1.05,1.05,0,0,0-1-1.31,3.25,3.25,0,0,0-2.88,1.63,1.17,1.17,0,0,0,.59,1.57A3,3,0,0,0,514.34,176.35Z" transform="translate(-225.19 -72.4)"/></svg>